<svg xmlns="http://www.w3.org/2000/svg" viewBox="0 0 128 128">
  <!-- Developed by mahbub khan <mahbub.aumi@gmail.com> -->
  <rect width="128" height="128" rx="24" fill="#294172"/>
  <path fill="#3c6eb4" d="M24 34c0-5.5 4.5-10 10-10h60c5.5 0 10 4.5 10 10v60c0 5.5-4.5 10-10 10H34c-5.5 0-10-4.5-10-10z"/>
  <path fill="#fff" d="M65 28c-13.8 0-25 11.2-25 25v8H30c-5.5 0-10 4.5-10 10s4.5 10 10 10h10v19h18V81h17V61H58v-8c0-3.9 3.1-7 7-7h11V28z"/>
  <circle cx="93" cy="36" r="12" fill="#79db32"/>
  <path fill="#1f4b1a" d="m88 36 3 3 7-8 3 3-10 11-6-6z"/>
</svg>
